HIERARCHY
ROOT RootJoint
{
    OFFSET   0.000000   0.000000   0.000000
    CHANNELS 6 Xposition Yposition Zposition Xrotation Yrotation Zrotation
    JOINT pelvis_lowerback
    {
        OFFSET   0.000000   0.093605   0.000000
        CHANNELS 3 Xrotation Yrotation Zrotation
        JOINT lowerback_torso
        {
            OFFSET   0.000000   0.100000   0.000000
            CHANNELS 3 Xrotation Yrotation Zrotation
            JOINT torso_head
            {
                OFFSET   0.000000   0.282350   0.000000
                CHANNELS 3 Xrotation Yrotation Zrotation
                End Site
                {
                    OFFSET   0.000000   0.192650   0.000000
                }
            }
            JOINT rTorso_Clavicle
            {
                OFFSET  -0.001000   0.157500   0.000000
                CHANNELS 3 Xrotation Yrotation Zrotation
                JOINT rShoulder
                {
                    OFFSET  -0.117647   0.000000   0.000000
                    CHANNELS 3 Xrotation Yrotation Zrotation
                    JOINT rElbow
                    {
                        OFFSET  -0.245000   0.000000   0.000000
                        CHANNELS 3 Xrotation Yrotation Zrotation
                        JOINT rWrist
                        {
                            OFFSET  -0.240000   0.000000   0.000000
                            CHANNELS 3 Xrotation Yrotation Zrotation
                            End Site
                            {
                                OFFSET  -0.116353  -0.002500   0.000000
                            }
                        }
                    }
                }
            }
            JOINT lTorso_Clavicle
            {
                OFFSET   0.001000   0.157500   0.000000
                CHANNELS 3 Xrotation Yrotation Zrotation
                JOINT lShoulder
                {
                    OFFSET   0.117647   0.000000   0.000000
                    CHANNELS 3 Xrotation Yrotation Zrotation
                    JOINT lElbow
                    {
                        OFFSET   0.245000   0.000000   0.000000
                        CHANNELS 3 Xrotation Yrotation Zrotation
                        JOINT lWrist
                        {
                            OFFSET   0.240000   0.000000   0.000000
                            CHANNELS 3 Xrotation Yrotation Zrotation
                            End Site
                            {
                                OFFSET   0.116353  -0.002500   0.000000
                            }
                        }
                    }
                }
            }
        }
    }
    JOINT rHip
    {
        OFFSET  -0.100000  -0.051395   0.000000
        CHANNELS 3 Xrotation Yrotation Zrotation
        JOINT rKnee
        {
            OFFSET   0.000000  -0.410000   0.000000
            CHANNELS 3 Xrotation Yrotation Zrotation
            JOINT rAnkle
            {
                OFFSET   0.000000  -0.390000   0.000000
                CHANNELS 3 Xrotation Yrotation Zrotation
                JOINT rToeJoint
                {
                    OFFSET   0.000000  -0.050000   0.130000
                    CHANNELS 3 Xrotation Yrotation Zrotation
                    End Site
                    {
                        OFFSET  -0.010000   0.002000   0.060000
                    }
                }
            }
        }
    }
    JOINT lHip
    {
        OFFSET   0.100000  -0.051395   0.000000
        CHANNELS 3 Xrotation Yrotation Zrotation
        JOINT lKnee
        {
            OFFSET   0.000000  -0.410000   0.000000
            CHANNELS 3 Xrotation Yrotation Zrotation
            JOINT lAnkle
            {
                OFFSET   0.000000  -0.390000   0.000000
                CHANNELS 3 Xrotation Yrotation Zrotation
                JOINT lToeJoint
                {
                    OFFSET   0.000000  -0.050000   0.130000
                    CHANNELS 3 Xrotation Yrotation Zrotation
                    End Site
                    {
                        OFFSET   0.010000   0.002000   0.060000
                    }
                }
            }
        }
    }
}
MOTION
Frames: 5
Frame Time:   0.008333
 -3.074200   0.905514   6.092549 -10.276285 -19.702003  -3.192371  11.206002   5.431806  -0.433544   1.902299   1.201072   0.419961  -1.373272   0.459166   3.265389   0.811596   1.458120   7.937462  -0.704670  10.420006  49.184336  -0.000540  29.962951   0.000383   0.848848   2.129325  -1.528432   2.413175   4.295803  -9.449151   4.180059  -2.734114 -53.039315  -0.000367 -20.094250   0.000299   1.025749  -0.788478   1.239335  16.677969   0.698089   4.655417   7.034711   0.000146  -0.000279 -12.729207   2.843291  -5.117254  -1.666901  -0.000006  -0.000000 -13.150673  -3.153864   2.005545  12.492698  -0.001243   0.000545  -4.628319   3.546882  -1.311416  -0.241421   0.000056  -0.000020
 -3.074694   0.905285   6.096200 -10.255640 -19.871818  -3.266053  11.221767   5.487791  -0.466650   1.882735   1.238102   0.455284  -1.416225   0.519976   3.264052   0.856479   1.455397   7.987594  -0.677177  10.391531  49.205798  -0.000458  29.861776   0.000262   0.806529   2.097590  -1.524904   2.378545   4.251118  -9.446591   4.011723  -2.725606 -52.956327  -0.000380 -20.245402   0.000257   0.981181  -0.786417   1.311154  16.741507   0.864209   4.635082   7.294392   0.000216  -0.000296 -12.843776   2.843424  -5.068895  -2.036548   0.000027  -0.000000 -12.945681  -3.121091   1.995440  12.343871  -0.001139   0.000625  -4.384881   3.610765  -1.170341  -0.227916   0.000040  -0.000024
 -3.075160   0.905173   6.099964 -10.237006 -20.039780  -3.331282  11.221822   5.536450  -0.501368   1.859642   1.271551   0.486416  -1.456191   0.578376   3.261981   0.902774   1.447580   8.035901  -0.648310  10.361978  49.227851  -0.000377  29.766571   0.000147   0.764210   2.065442  -1.525504   2.344954   4.209788  -9.441584   3.853104  -2.718577 -52.877962  -0.000383 -20.388035   0.000224   0.937658  -0.792773   1.383699  16.795473   1.019491   4.601134   7.581827   0.000293  -0.000333 -12.906966   2.843009  -5.020243  -2.510366   0.000055  -0.000000 -12.720083  -3.092558   1.968900  12.225154  -0.001033   0.000658  -4.156037   3.670710  -1.038951  -0.208054   0.000028  -0.000033
 -3.075639   0.905099   6.103794 -10.210710 -20.210147  -3.388685  11.206946   5.580455  -0.541244   1.827874   1.300950   0.514326  -1.495131   0.632941   3.259751   0.947751   1.438386   8.080286  -0.620241  10.333978  49.250673  -0.000296  29.678148   0.000045   0.723449   2.035670  -1.522820   2.312814   4.171381  -9.428864   3.704413  -2.712320 -52.801178  -0.000381 -20.522049   0.000202   0.895885  -0.804699   1.456903  16.839838   1.155868   4.553126   7.877423   0.000372  -0.000418 -12.919157   2.809413  -4.821119  -3.068453   0.000768   0.000264 -12.489509  -3.064624   1.938385  12.126003  -0.000928   0.000662  -3.942233   3.726936  -0.916702  -0.190090   0.000019  -0.000040
 -3.076079   0.905071   6.107698 -10.174331 -20.370284  -3.437715  11.179194   5.615492  -0.575215   1.788228   1.323191   0.538277  -1.533163   0.683588   3.256841   0.990790   1.426933   8.118266  -0.592850  10.306163  49.269212  -0.000219  29.595216  -0.000043   0.684259   2.006465  -1.523778   2.281437   4.134462  -9.416494   3.564442  -2.707513 -52.729001  -0.000371 -20.647739   0.000187   0.856043  -0.820041   1.529540  16.884096   1.288795   4.507521   8.162177   0.000421  -0.000461 -12.932960   2.815423  -4.801758  -3.625203   0.000498   0.000219 -12.260652  -3.038500   1.898904  12.040176  -0.000832   0.000641  -3.742452   3.779706  -0.802804  -0.172647   0.000014  -0.000045
